0
SECTION
2
HEADER
9
$INSUNITS
70
4
9
$ACADVER
1
AC1014
9
$HANDSEED
5
FFFF
0
ENDSEC
0
SECTION
2
TABLES
0
TABLE
2
VPORT
5
8
100
AcDbSymbolTable
0
ENDTAB
0
TABLE
2
LTYPE
5
5
100
AcDbSymbolTable
0
LTYPE
5
14
100
AcDbSymbolTableRecord
100
AcDbLinetypeTableRecord
2
BYBLOCK
70
0
0
LTYPE
5
15
100
AcDbSymbolTableRecord
100
AcDbLinetypeTableRecord
2
BYLAYER
70
0
0
ENDTAB
0
TABLE
2
LAYER
5
2
100
AcDbSymbolTable
70
2
0
LAYER
5
50
100
AcDbSymbolTableRecord
100
AcDbLayerTableRecord
2
0
70
0
6
CONTINUOUS
0
ENDTAB
0
TABLE
2
STYLE
5
3
100
AcDbSymbolTable
70
1
0
STYLE
5
11
100
AcDbSymbolTableRecord
100
AcDbTextStyleTableRecord
2
STANDARD
70
0
0
ENDTAB
0
TABLE
2
VIEW
5
6
100
AcDbSymbolTable
70
0
0
ENDTAB
0
TABLE
2
UCS
5
7
100
AcDbSymbolTable
70
0
0
ENDTAB
0
TABLE
2
APPID
5
9
100
AcDbSymbolTable
70
2
0
APPID
5
12
100
AcDbSymbolTableRecord
100
AcDbRegAppTableRecord
2
ACAD
70
0
0
ENDTAB
0
TABLE
2
DIMSTYLE
5
A
100
AcDbSymbolTable
70
1
0
ENDTAB
0
TABLE
2
BLOCK_RECORD
5
1
100
AcDbSymbolTable
70
1
0
BLOCK_RECORD
5
1F
100
AcDbSymbolTableRecord
100
AcDbBlockTableRecord
2
*MODEL_SPACE
0
BLOCK_RECORD
5
1B
100
AcDbSymbolTableRecord
100
AcDbBlockTableRecord
2
*PAPER_SPACE
0
ENDTAB
0
ENDSEC
0
SECTION
2
BLOCKS
0
BLOCK
5
20
100
AcDbEntity
100
AcDbBlockBegin
2
*MODEL_SPACE
0
ENDBLK
5
21
100
AcDbEntity
100
AcDbBlockEnd
0
BLOCK
5
1C
100
AcDbEntity
100
AcDbBlockBegin
2
*PAPER_SPACE
0
ENDBLK
5
1D
100
AcDbEntity
100
AcDbBlockEnd
0
ENDSEC
0
SECTION
2
ENTITIES
0
LWPOLYLINE
5
100
100
AcDbEntity
8
0
100
AcDbPolyline
90
4
70
1
43
0.0
10
-292.50000000000006
20
-185
10
-292.50000000000006
20
-235
10
-277.50000000000006
20
-235
10
-277.50000000000006
20
-185
0
LWPOLYLINE
5
101
100
AcDbEntity
8
0
100
AcDbPolyline
90
4
70
1
43
0.0
10
-142.49999999999997
20
-185
10
-142.49999999999997
20
-235
10
-127.49999999999997
20
-235
10
-127.49999999999997
20
-185
0
CIRCLE
5
102
100
AcDbEntity
8
0
100
AcDbCircle
10
-210
20
-340.00000000000028
30
0
40
7.5
210
0
220
0
230
1
0
LWPOLYLINE
5
103
100
AcDbEntity
8
0
100
AcDbPolyline
90
8
70
1
43
0.0
10
-288.00000000000006
20
-261.99999999999994
42
0.41421356237309509
10
-290.00000000000006
20
-263.99999999999994
10
-290.00000000000006
20
-275.99999999999994
42
0.41421356237309509
10
-288.00000000000006
20
-278
10
-282
20
-278
42
0.41421356237311585
10
-279.99999999999994
20
-276
10
-280
20
-264
42
0.4142135623731002
10
-282
20
-262
0
LWPOLYLINE
5
104
100
AcDbEntity
8
0
100
AcDbPolyline
90
8
70
1
43
0.0
10
-129.99999999999997
20
-156.00000000000003
10
-129.99999999999997
20
-144
42
0.4142135623730977
10
-131.99999999999994
20
-142
10
-138
20
-142
42
0.41421356237307944
10
-140
20
-144
10
-139.99999999999997
20
-156.00000000000003
42
0.41421356237310281
10
-138
20
-158.00000000000006
10
-131.99999999999994
20
-158.00000000000006
42
0.41421356237310281
0
LWPOLYLINE
5
105
100
AcDbEntity
8
0
100
AcDbPolyline
90
8
70
1
43
0.0
10
-290.00000000000006
20
-156.00000000000003
42
0.41421356237308204
10
-288.00000000000006
20
-158.00000000000006
10
-282
20
-158.00000000000006
42
0.41421356237308465
10
-280
20
-156.00000000000003
10
-280
20
-144
42
0.41421356237307683
10
-282
20
-142.00000000000003
10
-288.00000000000006
20
-142
42
0.41421356237309509
10
-290.00000000000006
20
-144
0
LWPOLYLINE
5
106
100
AcDbEntity
8
0
100
AcDbPolyline
90
8
70
1
43
0.0
10
-137.99999999999997
20
-278.00000000000006
10
-131.99999999999994
20
-278
42
0.4142135623730977
10
-129.99999999999997
20
-276
10
-129.99999999999997
20
-264
42
0.41421356237308465
10
-131.99999999999994
20
-261.99999999999994
10
-137.99999999999997
20
-261.99999999999994
42
0.41421356237307683
10
-139.99999999999997
20
-263.99999999999994
10
-139.99999999999997
20
-275.99999999999994
42
0.41421356237308465
0
LWPOLYLINE
5
107
100
AcDbEntity
8
0
100
AcDbPolyline
90
30
70
1
43
0.0
10
-418.00000000000011
20
-34.999999999999964
10
-402
20
-34.999999999999957
42
0.4142135623731048
10
-400
20
-33
10
-400.00000000000006
20
-2.0000000000000018
42
-0.41421356237304335
10
-398.00000000000011
20
2.4980018054066022e-14
10
-22.000000000000028
20
4.4408920985006262e-15
42
-0.41421356237309637
10
-20.000000000000004
20
-2.0000000000000018
10
-20
20
-33
42
0.41421356237309792
10
-18
20
-35
10
-2.0000000000000004
20
-34.999999999999993
42
-0.41421356237309204
10
2.7755575615628914e-16
20
-37.000000000000028
10
-5.1070259132757201e-14
20
-383.00000000000006
42
-0.41421356237311469
10
-1.9999999999999996
20
-385
10
-18.000000000000004
20
-385
42
0.41421356237310575
10
-19.999999999999961
20
-387
10
-20.00000000000011
20
-418.00000000000011
42
-0.41421356237310542
10
-22.000000000000064
20
-420
10
-192.5
20
-420
10
-192.5
20
-400
10
-192.5
20
-395
10
-227.5
20
-395
10
-227.5
20
-400
10
-227.5
20
-420
10
-398.00000000000011
20
-420
42
-0.41421356237309509
10
-400
20
-418.00000000000011
10
-400
20
-387
42
0.41421356237309509
10
-402
20
-385
10
-418.00000000000011
20
-385
42
-0.41421356237310542
10
-420
20
-383.00000000000006
10
-420.00000000000006
20
-37.000000000000021
42
-0.41421356237304491
0
ENDSEC
0
SECTION
2
OBJECTS
0
DICTIONARY
5
C
100
AcDbDictionary
3
ACAD_GROUP
350
D
3
ACAD_MLINESTYLE
350
17
0
DICTIONARY
5
D
100
AcDbDictionary
0
DICTIONARY
5
1A
330
C
100
AcDbDictionary
0
DICTIONARY
5
17
100
AcDbDictionary
0
ENDSEC
0
EOF
